<svg width="169" height="211" viewBox="0 0 169 211" fill="none" xmlns="http://www.w3.org/2000/svg">
<g filter="url(#filter0_d_4002_667)">
<path d="M148.642 202.375C149.423 203.156 150.689 203.156 151.47 202.375L164.198 189.647C164.979 188.866 164.979 187.599 164.198 186.818C163.417 186.037 162.151 186.037 161.37 186.818L150.056 198.132L138.742 186.818C137.961 186.037 136.695 186.037 135.914 186.818C135.133 187.599 135.133 188.866 135.914 189.647L148.642 202.375ZM4.50025 2.5004L4.15098 4.46966C71.5657 16.4261 107.296 39.9684 126.345 72.9427C145.496 106.095 148.056 149.173 148.056 200.96L150.056 200.96L152.056 200.96C152.056 149.287 149.569 105.149 129.809 70.9419C109.946 36.5576 72.8986 12.6 4.84951 0.531127L4.50025 2.5004Z" fill="#E26000"/>
</g>
<defs>
<filter id="filter0_d_4002_667" x="0.151001" y="0.53125" width="168.633" height="210.429" filterUnits="userSpaceOnUse" color-interpolation-filters="sRGB">
<feFlood flood-opacity="0" result="BackgroundImageFix"/>
<feColorMatrix in="SourceAlpha" type="matrix" values="0 0 0 0 0 0 0 0 0 0 0 0 0 0 0 0 0 0 127 0" result="hardAlpha"/>
<feOffset dy="4"/>
<feGaussianBlur stdDeviation="2"/>
<feComposite in2="hardAlpha" operator="out"/>
<feColorMatrix type="matrix" values="0 0 0 0 0 0 0 0 0 0 0 0 0 0 0 0 0 0 0.25 0"/>
<feBlend mode="normal" in2="BackgroundImageFix" result="effect1_dropShadow_4002_667"/>
<feBlend mode="normal" in="SourceGraphic" in2="effect1_dropShadow_4002_667" result="shape"/>
</filter>
</defs>
</svg>
