<svg width="40" height="40" viewBox="0 0 40 40" fill="none" xmlns="http://www.w3.org/2000/svg">
<path d="M17.7616 20.1594C17.7616 21.2639 18.6571 22.1594 19.7616 22.1594L37.7616 22.1594C38.8662 22.1594 39.7616 21.2639 39.7616 20.1594C39.7616 19.0548 38.8662 18.1594 37.7616 18.1594H21.7616V2.15937C21.7616 1.0548 20.8662 0.159373 19.7616 0.159373C18.6571 0.159373 17.7616 1.0548 17.7616 2.15937L17.7616 20.1594ZM18.3475 18.7451L18.3474 18.7452L21.1759 21.5736L21.1759 21.5735L18.3475 18.7451Z" fill="#E26000"/>
<path d="M22.0801 19.8409C22.0801 18.7363 21.1847 17.8409 20.0801 17.8409L2.08015 17.8409C0.97558 17.8409 0.0801493 18.7363 0.0801493 19.8409C0.0801493 20.9454 0.97558 21.8409 2.08015 21.8409H18.0801V37.8409C18.0801 38.9454 18.9756 39.8409 20.0801 39.8409C21.1847 39.8409 22.0801 38.9454 22.0801 37.8409L22.0801 19.8409ZM21.4943 21.2552L21.4944 21.2551L18.6659 18.4267L18.6659 18.4267L21.4943 21.2552Z" fill="#E26000"/>
</svg>
